<svg height="504pt" viewBox="0 -137 504 504" width="504pt" xmlns="http://www.w3.org/2000/svg"><path d="m112 226.035156c-5.601562-.238281-10.960938-.484375-16-.804687-21.679688-1.121094-38.398438-2.160157-48-2.800781-3.921875-.320313-6.640625-.488282-8-.5625-9.359375-.636719-17.601562-2-24-4.316407v-.082031c-10.078125-3.601562-16-9.757812-16-19.519531 0 4.640625 29.511719 7.199219 41.039062 7.917969l2.089844.167968c234.398438 15.914063 430.398438 4.320313 460.871094-24.085937 0 10.320312-8.800781 18.488281-24 25.039062-4.71875 2-10.078125 3.921875-16 5.601563-4.960938 1.445312-10.320312 2.808594-16 4-9.761719 2.085937-20.480469 3.917968-32 5.445312-10.078125 1.363282-20.800781 2.480469-32 3.441406-5.199219.480469-10.558594.878907-16 1.28125-5.28125.320313-10.558594.640626-16 .960938-5.28125.316406-10.640625.550781-16 .796875-5.28125.242187-10.640625.402344-16 .5625-5.28125.160156-10.640625.320313-16 .398437-5.28125.160157-10.640625.242188-16 .320313-5.28125.082031-10.640625.082031-16 .082031-5.359375.078125-10.640625.078125-16 .078125s-10.71875-.078125-16-.078125c-5.359375-.082031-10.71875-.082031-16-.160156-5.359375-.089844-10.71875-.242188-16-.320312-5.359375-.089844-10.71875-.242188-16-.320313-5.441406-.167969-10.71875-.320313-16-.488281-5.441406-.160156-10.71875-.320313-16-.554688-5.441406-.167968-10.800781-.316406-16-.558594-5.511719-.238281-10.800781-.398437-16-.640624-5.511719-.246094-10.871094-.480469-16-.800782zm0 0" fill="#965353"/><path d="m49.679688 162.4375c57.28125 5.359375 116.960937 11.191406 174.320312 15.191406 116 8 222.480469 8.167969 280-19.679687v24c-30.480469 28.40625-226.480469 40-460.871094 24.085937l-2.089844-.167968c-11.519531-.71875-41.039062-3.277344-41.039062-7.917969v-40c16.230469 1.449219 32.871094 2.960937 49.679688 4.488281zm0 0" fill="#e6e9ed"/><path d="m36.398438 27.628906-4.398438 10.320313c-5.921875 16-26.71875 30.808593-26.71875 30.808593 2.488281-21.769531 5.917969-40.878906 10.71875-46.808593 4.078125-5.039063 11.199219-1.039063 20.398438 5.679687zm0 0" fill="#965353"/><path d="m504 157.949219c-57.519531 27.839843-164 27.679687-280 19.679687 0 0 52.039062-96.078125 81-101.039062l29.398438 17.359375.082031-.230469c25.597656 7.269531 41.519531 8.230469 41.519531 8.230469 16 4.238281 16-8 16-8l.960938-4.398438c61.039062 18.398438 111.039062 32.398438 111.039062 60.398438zm0 0" fill="#ffce54"/><path d="m36.398438 27.628906c15.203124 11.046875 36.242187 29.449219 59.601562 26.320313 24.71875-3.359375 62.558594-31.273438 89.679688-45.59375l6.320312 5.59375c5.511719 4.808593 10.960938 9.359375 16.398438 13.679687l-7.117188 2.320313c-38.960938 14.640625-92.066406 138.070312-92.066406 138.070312-16.800782-1.527343-92.984375-8.621093-109.214844-10.070312v-8s1.199219-44.320313 5.28125-81.191407c0 0 20.796875-14.808593 26.71875-30.808593zm0 0" fill="#ffce54"/><path d="m240 114.15625c0-15.4375-12.558594-28-28-28s-28 12.5625-28 28c0 15.449219 12.558594 28 28 28s28-12.550781 28-28zm-190.320312 48.488281c92.824218 0 97.320312-127.503906 158.71875-134.808593h.089843c48.640625 38.488281 72.40625 31.722656 138.191407 69.273437-59.734376-19.6875-70.289063 80.726563-122.679688 80.726563s-117.039062-9.832032-174.320312-15.191407zm0 0" fill="#965353"/><path d="m216 2.4375c44 45.757812 116 68.640625 176.960938 87.121094l-.960938 4.398437s0 12.238281-16 8c0 0-15.921875-.960937-41.519531-8.230469-31.359375-9.042968-77.351563-27.601562-125.992188-66.089843h-.089843c-5.4375-4.320313-10.878907-8.871094-16.398438-13.679688l-6.320312-5.59375c14.089843-7.453125 25.28125-11.132812 30.320312-5.925781zm0 0" fill="#e6e9ed"/><path d="m212 81.949219c17.640625 0 32 14.359375 32 32 0 17.648437-14.359375 32-32 32s-32-14.351563-32-32c0-17.640625 14.359375-32 32-32zm0 0" fill="#ffce54"/><g fill="#f6bb42"><path d="m200 113.941406c-1.289062 0-2.550781-.625-3.328125-1.785156-1.222656-1.832031-.726563-4.320312 1.113281-5.542969l24-16c1.824219-1.214843 4.3125-.734375 5.542969 1.113281 1.222656 1.832032.726563 4.320313-1.113281 5.542969l-24 16c-.679688.457031-1.445313.671875-2.214844.671875zm0 0"/><path d="m224 121.941406c-.425781 0-.839844-.0625-1.265625-.199218l-24-8c-2.09375-.707032-3.222656-2.96875-2.527344-5.066407.703125-2.09375 2.984375-3.222656 5.066407-2.527343l24 8c2.09375.703124 3.222656 2.96875 2.527343 5.066406-.570312 1.664062-2.128906 2.726562-3.800781 2.726562zm0 0"/><path d="m200 137.941406c-1.289062 0-2.550781-.625-3.328125-1.785156-1.222656-1.832031-.726563-4.320312 1.113281-5.542969l24-16c1.824219-1.222656 4.3125-.746093 5.542969 1.113281 1.222656 1.832032.726563 4.320313-1.113281 5.542969l-24 16c-.679688.457031-1.445313.671875-2.214844.671875zm0 0"/></g></svg>